:SAMPLES-PER-SECOND 30
:FULLY-SPECIFIED
:DEGREES
137
root  16.30340036 35.27822119 -5.588777797 -14.06169987 -54.89789963 12.04329967
lfemur  -24.31509399 -5.318329334 -3.346893549
ltibia  -1.491570742e-006 -8.364404493e-007 58.67938995
lfoot  5.521815751e-007 -20.27089691 -10.27799892
ltoes  -4.250644065 -19.5611806 -102.515957
rfemur  -12.76409817 10.69550133 -2.462412596
rtibia  -8.727266732e-007 2.533748784e-007 72.26428986
rfoot  -2.316020982e-006 -27.50639343 -16.05179787
rtoes  5.373923086 19.29304026 -105.8922705
lowerback  8.9373703 3.333940029 -2.699369907
upperback  4.663149834 4.058310032 -3.49909997
thorax  -0.09365490079 1.974249959 -2.461380005
rclavicle  0 -9.442270133e-015 7.951389973e-016
rhumerus  13.41800117 15.92930031 -75.9131012
rradius  -7.782816926e-012 0.001642658608 140.7250061
rwrist  0.002739921212 0.003270594636 -17.58390045
rthumb  -92.93752616 -24.25625642 -97.11982154
rhand  -7.920061211e-032 -33.2840004 9.303460121
rfingers  -90 -7.125020027 -90
lclavicle  0 -9.442270133e-015 7.951389973e-016
lhumerus  9.659238815 -0.8891860247 77.17620087
lradius  1.032090038e-011 0.005718162749 136.5410004
lwrist  1.816137865e-011 1.409039812e-011 12.35079956
lthumb  89.89689403 5.08795885 91.16245106
lhand  -1.496451383e-031 -27.76390076 20.11240005
lfingers  90 7.125020027 -90
lowerneck  2.854830027 7.925419807 -10.34119987
upperneck  18.89310074 10.24370003 2.570250034
head  4.6010499 4.337510109 2.727999926
138
root  16.35686769 35.28133302 -5.536600173 -14.6473999 -54.75350189 12.33469963
lfemur  -23.90709877 -5.443639755 -3.79263401
ltibia  -1.491570742e-006 -8.364404493e-007 58.57259369
lfoot  5.521815751e-007 -20.5527935 -10.22550011
ltoes  -4.250644065 -19.5611806 -102.515957
rfemur  -12.84899712 9.66340065 -3.09927249
rtibia  -8.727266732e-007 2.533748784e-007 72.53059387
rfoot  -2.316020982e-006 -27.01959419 -15.34289837
rtoes  5.373923086 19.29304026 -105.8922705
lowerback  8.937740326 3.3854599 -2.70272994
upperback  4.739510059 4.134640217 -3.253779888
thorax  -0.03198910132 2.010070086 -2.209939957
rclavicle  0 -9.442270133e-015 7.951389973e-016
rhumerus  13.05349922 16.7798996 -76.27059937
rradius  -7.782816926e-012 0.001642658608 140.0269928
rwrist  0.002739921212 0.003270594636 -16.99850082
rthumb  -92.93752616 -24.25625642 -97.11982154
rhand  -7.920061211e-032 -33.2840004 9.303460121
rfingers  -90 -7.125020027 -90
lclavicle  0 -9.442270133e-015 7.951389973e-016
lhumerus  9.462670326 -0.8135050535 77.31809998
lradius  1.032090038e-011 0.005718162749 136.2859955
lwrist  1.816137865e-011 1.409039812e-011 12.48970032
lthumb  89.89689403 5.08795885 91.16245106
lhand  -1.496451383e-031 -27.76390076 20.11240005
lfingers  90 7.125020027 -90
lowerneck  3.049329996 8.007740021 -10.3998003
upperneck  17.88519859 10.31000042 2.699700594
head  4.242519855 4.426809788 2.733350039
139
root  16.39962234 35.31733235 -5.51137774 -15.1498003 -54.49570084 12.50720024
lfemur  -23.40749359 -5.65584898 -4.227214336
ltibia  -1.491570742e-006 -8.364404493e-007 58.20068741
lfoot  5.521815751e-007 -20.78529167 -9.835687637
ltoes  -4.250644065 -19.5611806 -102.515957
rfemur  -12.73129463 8.364571571 -3.66930294
rtibia  -8.727266732e-007 2.533748784e-007 72.59368134
rfoot  -2.316020982e-006 -26.58439445 -14.49739838
rtoes  5.373923086 19.29304026 -105.8922705
lowerback  9.261039734 3.426860094 -2.753940105
upperback  4.614990234 4.170609951 -3.021980047
thorax  -0.3591679931 2.027780056 -1.970679998
rclavicle  0 -9.442270133e-015 7.951389973e-016
rhumerus  12.28800106 17.35659981 -76.62220001
rradius  -7.782816926e-012 0.001642658608 139.4250031
rwrist  0.002739921212 0.003270594636 -16.4470005
rthumb  -92.93752616 -24.25625642 -97.11982154
rhand  -7.920061211e-032 -33.2840004 9.303460121
rfingers  -90 -7.125020027 -90
lclavicle  0 -9.442270133e-015 7.951389973e-016
lhumerus  9.058939934 -0.9421589375 77.37619781
lradius  1.032090125e-011 0.005718162749 136.0599976
lwrist  1.816137865e-011 1.409039812e-011 12.5994997
lthumb  89.89689403 5.08795885 91.16245106
lhand  -1.496451383e-031 -27.76390076 20.11240005
lfingers  90 7.125020027 -90
lowerneck  3.41437006 8.066969872 -10.32380009
upperneck  17.24839973 10.32240105 2.84485054
head  3.981090069 4.47740984 2.727210045
140
root  16.42780004 35.38755582 -5.506777951 -15.57479954 -54.23160172 12.6257
lfemur  -22.81809044 -5.753209114 -4.624433994
ltibia  -1.491570742e-006 -8.364404493e-007 57.59448624
lfoot  5.521815751e-007 -20.81949425 -9.393868446
ltoes  -4.250644065 -19.5611806 -102.515957
rfemur  -12.49069881 7.007980824 -4.204642296
rtibia  -8.727266732e-007 2.533748784e-007 72.47689056
rfoot  -2.316020982e-006 -26.28259468 -13.57579803
rtoes  5.373923086 19.29304026 -105.8922705
lowerback  9.365119934 3.546089888 -2.616019964
upperback  4.643610001 4.337749958 -2.962389946
thorax  -0.3786680102 2.113470078 -2.007369995
rclavicle  0 -9.442270133e-015 7.951389973e-016
rhumerus  11.46590042 17.2465992 -76.89550018
rradius  -7.782816058e-012 0.001642658608 138.9929962
rwrist  0.002739921212 0.003270594636 -15.57380009
rthumb  -92.93752616 -24.25625642 -97.11982154
rhand  -7.920061211e-032 -33.2840004 9.303460121
rfingers  -90 -7.125020027 -90
lclavicle  0 -9.442270133e-015 7.951389973e-016
lhumerus  9.135198593 -1.702879906 77.07830048
lradius  1.032089865e-011 0.005718162749 135.8809967
lwrist  1.816137865e-011 1.409039812e-011 12.76099968
lthumb  89.89689403 5.08795885 91.16245106
lhand  -1.496451383e-031 -27.76390076 20.11240005
lfingers  90 7.125020027 -90
lowerneck  3.411010027 7.971779823 -9.824170113
upperneck  16.89100075 10.17939949 3.021630049
head  3.889709949 4.466650009 2.692660093
